<svg width="51" height="29" viewBox="0 0 51 29" fill="none" xmlns="http://www.w3.org/2000/svg">
<path d="M49.9171 14.2972C49.9171 21.6719 43.7901 27.6706 36.2066 27.6706C28.6231 27.6706 22.4961 21.6719 22.4961 14.2972C22.4961 6.92255 28.6231 0.923828 36.2066 0.923828C43.7901 0.923828 49.9171 6.92255 49.9171 14.2972Z" stroke="#E8F2F9"/><path d="M38.141 14.1368C38.3362 13.9415 38.3362 13.6249 38.141 13.4296L34.959 10.2477C34.7637 10.0524 34.4471 10.0524 34.2519 10.2477C34.0566 10.4429 34.0566 10.7595 34.2519 10.9548L37.0803 13.7832L34.2519 16.6116C34.0566 16.8069 34.0566 17.1235 34.2519 17.3187C34.4471 17.514 34.7637 17.514 34.959 17.3187L38.141 14.1368ZM0.945313 14.2832L37.7874 14.2832L37.7874 13.2832L0.945312 13.2832L0.945313 14.2832Z" fill="#D82221"/>
</svg>
