<svg width="32" height="32" viewBox="0 0 32 32" fill="none" xmlns="http://www.w3.org/2000/svg">
<path d="M7.2304 0.491211H9.68021C9.79297 0.491211 9.88424 0.603973 9.88424 0.695248V5.59486C9.88424 5.70762 9.79298 5.79889 9.68021 5.79889H7.2304C7.11764 5.79889 7.02637 5.68613 7.02637 5.59486V0.695248C7.02637 0.582487 7.11764 0.491211 7.2304 0.491211Z" fill="#D82221"/>
<path d="M29.2381 4.16602H26.2164V5.47255C26.2164 6.24819 25.6447 7.02418 24.8691 7.02418H22.46C22.0581 6.99571 21.6796 6.82322 21.3947 6.53796C21.1097 6.25298 20.9369 5.87478 20.9084 5.47258V4.16604H11.1092V5.47258C11.0807 5.87478 10.908 6.253 10.623 6.53796C10.338 6.82322 9.95953 6.9957 9.55761 7.02418H7.14853C6.3729 7.02418 5.80127 6.24854 5.80127 5.47255V4.16602H2.77955C2.27769 4.17662 1.80012 4.38373 1.449 4.74239C1.09787 5.10106 0.901367 5.58312 0.901367 6.08523V11.1074H31.1164V6.08523C31.1164 5.5831 30.92 5.10109 30.5688 4.74239C30.2177 4.38373 29.7401 4.17662 29.2383 4.16602H29.2381Z" fill="#D82221"/>
<path d="M22.3378 0.491211H24.7876C24.9004 0.491211 24.9917 0.603973 24.9917 0.695248V5.59486C24.9917 5.70762 24.9004 5.79889 24.7876 5.79889H22.3378C22.2251 5.79889 22.1338 5.68613 22.1338 5.59486V0.695248C22.1338 0.582487 22.2251 0.491211 22.3378 0.491211Z" fill="#D82221"/>
<path d="M12.9467 23.2747L12.3751 26.5819L15.3151 25.0303L15.6009 24.9485L15.8867 25.0303L18.8267 26.5819L18.255 23.2747H18.2548C18.233 23.0827 18.2922 22.8903 18.418 22.7438L20.8271 20.4573L17.5199 19.9674C17.3264 19.9364 17.1595 19.815 17.0705 19.6406L15.6007 16.6602L14.1309 19.6409V19.6406C14.0418 19.815 13.8749 19.9364 13.6818 19.9674L10.3745 20.4573L12.7836 22.7438H12.7833C12.9095 22.8904 12.9686 23.0827 12.9469 23.2747L12.9467 23.2747Z" fill="#D82221"/>
<path d="M0.901367 29.6854C0.912253 30.1763 1.11461 30.6436 1.46574 30.9872C1.81687 31.3305 2.2886 31.5228 2.77957 31.5228H29.2383C29.7293 31.5228 30.201 31.3305 30.5521 30.9872C30.9033 30.6436 31.1056 30.1763 31.1165 29.6854V12.332H0.901424L0.901367 29.6854ZM8.49622 19.8454C8.56154 19.6224 8.75524 19.4611 8.98635 19.4371L13.1918 18.7837L15.07 14.9862V14.9865C15.1794 14.7967 15.3817 14.6795 15.6008 14.6795C15.8199 14.6795 16.0223 14.7967 16.1317 14.9865L18.0099 18.7839L22.2153 19.4374V19.4371C22.4467 19.4611 22.6401 19.6224 22.7055 19.8454C22.7794 20.0637 22.7152 20.3054 22.5422 20.4578L19.5207 23.3978L20.2556 27.6032C20.2838 27.8243 20.19 28.0431 20.0106 28.1749C19.9034 28.2519 19.7753 28.2946 19.643 28.2974C19.5408 28.3072 19.4389 28.2778 19.3572 28.2156L15.6008 26.2559L11.8445 28.2159V28.2156C11.6396 28.3404 11.3789 28.3242 11.1911 28.1749C11.0116 28.0431 10.9178 27.8243 10.9463 27.6032L11.6812 23.3978L8.65974 20.4578C8.48669 20.3054 8.42226 20.0637 8.49622 19.8454Z" fill="#D82221"/>
</svg>
