<svg width="40" height="38" viewBox="0 0 40 38" fill="none" xmlns="http://www.w3.org/2000/svg">
<path d="M20.0091 34.5794C15.0987 34.5794 10.6873 32.3323 7.8159 28.7949H4.73633C7.94075 33.7889 13.6003 37.1179 20.009 37.1179C26.4177 37.1179 32.0773 33.7886 35.3232 28.7949H32.2437C29.331 32.3323 24.9195 34.5794 20.0089 34.5794H20.0091Z" fill="#D82221"/>
<path d="M9.93855 6.65598C12.6852 4.40893 16.1808 3.03556 20.0093 3.03556C23.8379 3.03556 27.3335 4.40885 30.0801 6.65598C30.9124 6.28151 31.8694 6.07339 32.8268 6.07339H33.1182C29.789 2.66082 25.1698 0.49707 20.0096 0.49707C14.8493 0.49707 10.2301 2.61935 6.90088 6.03185H7.19232C8.19093 6.03156 9.10646 6.28149 9.93868 6.65595L9.93855 6.65598Z" fill="#D82221"/>
<path d="M7.19176 16.8933C9.48065 16.8933 11.3532 15.0207 11.3532 12.7318C11.3532 10.4429 9.48065 8.57031 7.19176 8.57031C4.90287 8.57031 3.03027 10.4429 3.03027 12.7318C3.03027 15.0207 4.90287 16.8933 7.19176 16.8933Z" fill="#D82221"/>
<path d="M10.854 25.8823C10.854 23.6767 11.6862 21.6375 13.0181 20.0979C12.4355 19.2238 11.6448 18.4749 10.7292 17.9756C9.73034 18.683 8.48212 19.0575 7.15029 19.0575C5.81847 19.0575 4.61178 18.6412 3.57141 17.9756C1.57397 19.0993 0.200684 21.263 0.200684 23.7185V24.5926C0.200684 25.5081 0.949602 26.257 1.86513 26.257L10.8539 26.2567L10.854 25.8823Z" fill="#D82221"/>
<path d="M28.665 12.7318C28.665 15.0207 30.5376 16.8933 32.8265 16.8933C35.1154 16.8933 36.988 15.0207 36.988 12.7318C36.988 10.4429 35.1154 8.57031 32.8265 8.57031C30.5376 8.57031 28.665 10.4432 28.665 12.7318Z" fill="#D82221"/>
<path d="M36.4056 18.0166C35.3653 18.724 34.1586 19.0985 32.8268 19.0985C31.4949 19.0985 30.2882 18.6822 29.2479 18.0166C28.3323 18.5159 27.5416 19.2651 26.959 20.1389C28.3323 21.637 29.1646 23.6763 29.1646 25.8818V26.2981H38.1118C39.0273 26.2981 39.7762 25.5492 39.7762 24.6336V23.7596C39.7765 21.2625 38.4031 19.1403 36.4058 18.0166L36.4056 18.0166Z" fill="#D82221"/>
<path d="M20.0091 19.0573C22.298 19.0573 24.1706 17.1848 24.1706 14.8959C24.1706 12.607 22.298 10.7344 20.0091 10.7344C17.7203 10.7344 15.8477 12.607 15.8477 14.8959C15.8477 17.1848 17.7203 19.0573 20.0091 19.0573Z" fill="#D82221"/>
<path d="M13.0596 25.8816V26.7557C13.0596 27.6712 13.8085 28.4201 14.724 28.4201H25.2526C26.1681 28.4201 26.917 27.6712 26.917 26.7557L26.9173 25.8816C26.9173 23.4264 25.544 21.2623 23.5466 20.1387C22.5062 20.8461 21.2995 21.2206 19.9677 21.2206C18.6359 21.2206 17.4292 20.8043 16.3888 20.1387C14.4329 21.2623 13.0596 23.4264 13.0596 25.8816Z" fill="#D82221"/>
</svg>
