<svg width="37" height="37" viewBox="0 0 37 37" fill="none" xmlns="http://www.w3.org/2000/svg">
<path fill-rule="evenodd" clip-rule="evenodd" d="M0.958984 3.61557C0.958984 4.48359 2.18473 5.33202 4.1647 6.00194C8.86908 7.59423 16.5103 7.59423 21.2169 6.00194C22.1188 5.69713 24.4226 4.82253 24.4226 3.61557C24.4226 2.74785 23.1975 1.89942 21.2169 1.22921C16.5125 -0.362862 8.87127 -0.362862 4.1647 1.22921C3.2628 1.5343 0.958984 2.40862 0.958984 3.61557ZM16.7209 16.7131H35.3082C35.7126 16.714 36.0405 17.0412 36.0416 17.4457V36.033C36.0405 36.4374 35.7126 36.765 35.3082 36.7659H16.7209C16.3165 36.7647 15.9892 36.4374 15.988 36.033V17.4457C15.9892 17.0415 16.3165 16.7143 16.7209 16.7131ZM32.458 25.6789H30.453V34.5128C30.4533 34.6768 30.5862 34.8094 30.7501 34.8099H32.1595C32.3234 34.8094 32.4563 34.6768 32.4566 34.5128V25.6789H32.458ZM30.453 21.1401H32.4569L32.4566 18.9672C32.4563 18.8033 32.3234 18.6704 32.1595 18.6698H30.7501C30.5862 18.6704 30.4533 18.8033 30.453 18.9672L30.453 21.1401ZM21.7444 27.5157H19.7405V34.5125C19.7411 34.6765 19.8743 34.8094 20.0382 34.8097H21.4473C21.6112 34.8094 21.7441 34.6765 21.7444 34.5125V27.5157ZM19.7405 22.9778H21.7444V18.9684C21.7441 18.8045 21.6112 18.6716 21.4473 18.6713H20.0405C19.8763 18.6716 19.7431 18.8045 19.7428 18.9684V22.9775L19.7405 22.9778ZM27.016 32.3392H25.0124V34.5127C25.0127 34.6766 25.1456 34.8095 25.3098 34.8098H26.7186C26.8828 34.8095 27.0157 34.6766 27.016 34.5127V32.3392ZM25.0127 27.8013H27.016V18.9674C27.0157 18.8032 26.8828 18.6703 26.7186 18.67H25.3098C25.1456 18.6703 25.0127 18.8032 25.0124 18.9674V27.8006L25.0127 27.8013ZM33.7235 24.1929V22.6276C33.7229 22.4637 33.59 22.3308 33.4258 22.3305H29.4836C29.3194 22.3308 29.1865 22.4637 29.1859 22.6276V24.1932C29.1865 24.3571 29.3194 24.49 29.4836 24.4903H33.4258C33.59 24.49 33.7229 24.3571 33.7235 24.1932V24.1929ZM22.843 26.0285V24.4638C22.8427 24.2993 22.7095 24.1661 22.5453 24.1661H18.6031C18.4389 24.1661 18.3057 24.2993 18.3054 24.4638V26.0288V26.0285C18.3057 26.193 18.4389 26.3262 18.6031 26.3262H22.5453C22.7095 26.3262 22.8427 26.193 22.843 26.0285ZM28.284 30.8528V29.2872C28.2837 29.1233 28.1508 28.9904 27.9869 28.9901H24.0441C23.8801 28.9904 23.7475 29.1233 23.7469 29.2872V30.8528C23.7475 31.0167 23.8801 31.1493 24.0441 31.1499H27.9869C28.1508 31.1493 28.2837 31.0167 28.284 30.8528ZM24.4251 12.4134C23.573 13.0517 22.6174 13.5384 21.5999 13.852C16.6391 15.5303 8.74647 15.5303 3.78562 13.852C2.76817 13.5384 1.81221 13.0514 0.959859 12.4134V17.0683C0.959859 17.9363 2.18561 18.7847 4.16557 19.4552C7.38236 20.5436 11.3935 20.7834 14.7983 20.5825L14.7986 17.4454C14.8001 16.936 15.003 16.4479 15.363 16.0878C15.7233 15.7275 16.2114 15.5246 16.7208 15.5232H24.4226V12.4131L24.4251 12.4134ZM13.6459 17.2797C13.8061 17.2754 13.9615 17.3363 14.0765 17.4482C14.1915 17.5603 14.2564 17.714 14.2564 17.8745C14.2564 18.035 14.1915 18.1887 14.0765 18.3006C13.9615 18.4127 13.8061 18.4733 13.6459 18.4691H11.7385C11.578 18.4733 11.4229 18.4127 11.3079 18.3006C11.1926 18.1887 11.128 18.035 11.128 17.8745C11.128 17.714 11.1926 17.5603 11.3079 17.4482C11.4229 17.3363 11.578 17.2754 11.7385 17.2797H13.6459ZM0.959276 10.3412V5.68749C1.81163 6.32584 2.76759 6.81247 3.78504 7.12641C8.74588 8.80468 16.6385 8.80468 21.5993 7.12641C22.6168 6.8125 23.5725 6.32586 24.4245 5.68749V10.3412C24.4245 11.2093 23.1994 12.0577 21.2188 12.7276C16.5144 14.3199 8.87316 14.3199 4.16659 12.7276C2.18575 12.0577 0.960879 11.2093 0.960879 10.3412H0.959276ZM13.6452 10.5541H11.7381C11.5775 10.5498 11.4224 10.6105 11.3075 10.7226C11.1922 10.8344 11.1276 10.9881 11.1276 11.1486C11.1276 11.3092 11.1922 11.4628 11.3075 11.575C11.4224 11.6868 11.5775 11.7477 11.7381 11.7435H13.6455C13.8057 11.7477 13.9611 11.6868 14.0761 11.575C14.191 11.4628 14.2559 11.3092 14.2559 11.1486C14.2559 10.9881 14.191 10.8344 14.0761 10.7226C13.9611 10.6105 13.8057 10.5498 13.6455 10.5541H13.6452ZM14.7986 21.7727V27.3098C11.3934 27.5104 7.38324 27.2705 4.16586 26.1825C2.18502 25.5123 0.96015 24.6636 0.96015 23.7955L0.959865 19.1389C1.81222 19.7773 2.76818 20.2639 3.78563 20.5782C7.13196 21.7103 11.26 21.9753 14.7994 21.7718L14.7986 21.7727ZM13.6457 24.0054H11.7381C11.5775 24.0014 11.4224 24.062 11.3075 24.1741C11.1922 24.286 11.1276 24.4397 11.1276 24.6002C11.1276 24.7607 11.1922 24.9144 11.3075 25.0265C11.4224 25.1384 11.5775 25.1993 11.7381 25.195H13.6457C13.9682 25.1865 14.2249 24.9226 14.2249 24.6002C14.2249 24.2777 13.9682 24.0139 13.6457 24.0054Z" fill="#D82221"/>
</svg>
