<svg width="43" height="40" viewBox="0 0 43 40" fill="none" xmlns="http://www.w3.org/2000/svg">
<path d="M41.3434 20.9528C40.8156 20.3762 40.0722 20.0776 39.2802 20.0705C38.3839 20.0844 37.5642 20.5428 37.0779 21.2514V15.6313C37.0779 14.5824 36.5082 13.6374 35.6331 13.1235C35.786 12.7554 35.9317 12.3873 36.0499 12.026C37.2169 8.37882 36.3833 4.89861 33.82 2.73141C31.9236 1.12679 29.8811 0.4321 27.7694 0.675282C24.6712 1.02263 22.2673 3.26644 21.2324 4.40582C20.1972 3.26637 17.7938 1.02263 14.6955 0.675282C12.5835 0.43214 10.5413 1.12683 8.64485 2.73141C6.08132 4.89893 5.24769 8.37922 6.41501 12.026C6.53317 12.3873 6.67893 12.7554 6.83183 13.1235C5.95667 13.6377 5.38694 14.5824 5.38694 15.6313V21.2514C4.90066 20.5428 4.081 20.0844 3.18473 20.0705C2.41375 20.0773 1.64958 20.3762 1.12145 20.9528C0.585857 21.5293 0.328757 22.3142 0.405364 23.0992L0.446922 23.5299C0.634552 25.489 0.919249 28.4554 2.66994 30.8729C2.87153 31.1576 3.06598 31.4218 3.26043 31.6717C4.49007 33.325 5.30298 34.409 5.31656 36.5693V39.1397C5.31656 39.5218 5.62917 39.8344 6.01125 39.8344C6.39333 39.8344 6.70594 39.5218 6.70594 39.1397V36.5625C6.68516 33.9435 5.6639 32.5748 4.37193 30.8452C4.1843 30.5953 3.99667 30.3382 3.7954 30.0603C2.26708 27.9483 2.01 25.3156 1.82946 23.3981L1.78791 22.9605C1.74635 22.5644 1.87133 22.1824 2.14207 21.8976C2.40599 21.6058 2.76047 21.4461 3.15616 21.4601C3.75347 21.4669 4.28164 21.8701 4.43456 22.4395C4.76794 23.6551 5.12243 24.5998 5.4419 25.3017L5.44872 25.3085C5.94897 26.4132 6.345 26.9203 6.37263 26.955C6.51156 27.1286 6.71997 27.226 6.94916 27.212C7.19912 27.2052 12.993 26.9757 13.5001 31.7622C13.5416 32.1443 13.8821 32.4222 14.2642 32.3806C14.6463 32.3391 14.9242 31.9986 14.8826 31.6165C14.3895 26.9967 9.92951 25.8158 7.29651 25.8158H7.27573C7.15757 25.6214 6.97708 25.3088 6.77549 24.878L6.7758 15.6311C6.7758 15.1169 7.03972 14.6517 7.45653 14.3807C8.06098 15.4574 8.83909 16.5202 9.78372 17.4999V24.0092C9.78372 24.3981 10.0963 24.7039 10.4784 24.7039C10.8605 24.7039 11.1731 24.3981 11.1731 24.0092V18.7783C12.0694 19.5145 13.0767 20.1816 14.1811 20.7513V24.0096C14.1811 24.3985 14.4937 24.7043 14.8758 24.7043C15.2579 24.7043 15.5705 24.3985 15.5705 24.0096V21.3977C16.5083 21.7798 17.5156 22.0924 18.5784 22.3216V26.976C18.5784 29.1227 18.0853 31.2831 17.1611 33.2143C17.1124 33.3117 17.0916 33.4159 17.0916 33.5201V39.1403C17.0916 39.5223 17.4043 39.8349 17.7863 39.8349C18.1684 39.8349 18.481 39.5223 18.481 39.1403V33.673C19.4536 31.5889 19.9678 29.2756 19.9678 26.976V22.5786C20.3639 22.6341 20.7599 22.6896 21.1768 22.7176C21.1907 22.7244 21.2115 22.7244 21.2323 22.7244C21.253 22.7244 21.2738 22.7244 21.2878 22.7176C21.7046 22.6897 22.1006 22.6341 22.4967 22.5786V26.976C22.4967 29.2753 23.0109 31.5889 23.9835 33.673V39.1403C23.9835 39.5223 24.2961 39.8349 24.6782 39.8349C25.0603 39.8349 25.3729 39.5223 25.3729 39.1403V33.5201C25.3729 33.4159 25.3521 33.3117 25.3034 33.2143C24.3795 31.2831 23.8861 29.1224 23.8861 26.976V22.3216C24.9489 22.0924 25.9562 21.7798 26.8941 21.3977V24.0096C26.8941 24.3985 27.2067 24.7043 27.5888 24.7043C27.9708 24.7043 28.2834 24.3985 28.2834 24.0096V20.7513C29.3881 20.1816 30.3955 19.5149 31.2914 18.7783V24.0092C31.2914 24.3981 31.604 24.7039 31.9861 24.7039C32.3682 24.7039 32.6808 24.3981 32.6808 24.0092V17.4999C33.6254 16.5205 34.4036 15.4574 35.008 14.3807C35.4248 14.6517 35.6887 15.1169 35.6887 15.6311V24.8773C35.4871 25.308 35.3066 25.6206 35.1885 25.8151C32.5347 25.829 28.0747 26.9821 27.5816 31.6157C27.5401 31.9978 27.818 32.3383 28.2 32.3799C28.5753 32.4214 28.9227 32.1435 28.9642 31.7614C29.4713 26.9749 35.2651 27.2044 35.5151 27.2113C35.7375 27.2252 35.9527 27.1278 36.0917 26.9542C36.1196 26.9194 36.5153 26.4124 37.0156 25.3077C37.0224 25.3077 37.0224 25.3009 37.0224 25.3009C37.3418 24.5994 37.6963 23.6544 38.0297 22.4387C38.1826 21.8689 38.7104 21.4661 39.3081 21.4593C39.7181 21.4385 40.0583 21.605 40.3222 21.8969C40.5933 22.1816 40.7182 22.5636 40.6764 22.9597L40.6348 23.3973C40.4543 25.3145 40.1972 27.9475 38.6689 30.0595C38.4673 30.3374 38.28 30.5945 38.0923 30.8444C36.8004 32.5743 35.7791 33.9426 35.7583 36.5689V39.1392C35.7583 39.5213 36.0709 39.8339 36.453 39.8339C36.8351 39.8339 37.1477 39.5213 37.1477 39.1392V36.5757C37.1617 34.4082 37.9745 33.3246 39.2038 31.6713C39.3983 31.4214 39.5927 31.1571 39.7943 30.8725C41.545 28.455 41.8297 25.4886 42.0173 23.5295L42.0589 23.0988C42.1358 22.3141 41.8787 21.5292 41.3438 20.9527L41.3434 20.9528ZM31.3121 10.5046C31.6247 9.51121 31.9581 7.67715 30.6034 6.53801C29.8672 5.91279 29.2001 5.60696 28.568 5.60696C28.1859 5.60696 27.8733 5.29435 27.8733 4.91227C27.8733 4.53019 28.1859 4.21758 28.568 4.21758C29.5406 4.21758 30.4992 4.62757 31.4997 5.47485C33.4728 7.14211 33.056 9.60148 32.632 10.9214C32.5418 11.2201 32.2639 11.4077 31.972 11.4077C31.9026 11.4077 31.8331 11.3937 31.7636 11.3729C31.3955 11.2548 31.1942 10.8659 31.3121 10.5046Z" fill="#D82221"/>
</svg>
