<svg width="52" height="53" viewBox="0 0 52 53" fill="none" xmlns="http://www.w3.org/2000/svg">
<path d="M41.6001 0.200195H10.4001C7.64268 0.203242 4.99926 1.29968 3.04971 3.24966C1.09971 5.19921 0.00325271 7.84263 0.000244141 10.6V41.8C0.00329093 44.5574 1.09973 47.2009 3.04971 49.1504C4.99926 51.1004 7.64268 52.1969 10.4001 52.1999H41.6001C44.3575 52.1973 47.0009 51.1004 48.9509 49.1509C50.9005 47.2009 51.9974 44.5574 51.9999 41.8V10.6C51.9973 7.84263 50.9004 5.19921 48.9509 3.24921C47.0009 1.29966 44.3575 0.202758 41.6001 0.200195ZM46.8002 41.7998C46.7985 43.1783 46.25 44.5002 45.2754 45.4752C44.3004 46.4497 42.9786 46.9982 41.6001 46.9999H10.4001C9.02161 46.9986 7.69973 46.4502 6.72473 45.4752C5.74973 44.5001 5.20128 43.1783 5.19994 41.7998V10.5998C5.20125 9.22134 5.74969 7.89946 6.72473 6.92446C7.69978 5.94946 9.02161 5.40101 10.4001 5.39967H41.6001C42.9786 5.40141 44.3004 5.94985 45.2754 6.92446C46.25 7.89946 46.7984 9.22134 46.8002 10.5998V41.7998Z" fill="white"/>
<path d="M26.0001 14.6002C22.9237 14.6002 19.9734 15.8229 17.7984 17.9983C15.6234 20.1738 14.4017 23.124 14.4021 26.2005C14.4021 29.2769 15.6244 32.2272 17.7998 34.4022C19.9752 36.5772 22.9255 37.7994 26.0019 37.799C29.0784 37.799 32.0286 36.5767 34.2036 34.4017C36.379 32.2263 37.6009 29.276 37.6009 26.1996C37.5974 23.1239 36.3742 20.1755 34.1993 18.0009C32.0243 15.8263 29.0758 14.6033 26.0001 14.6002ZM26.0001 32.5993C24.3031 32.5988 22.6756 31.9242 21.4756 30.7241C20.2755 29.5237 19.6018 27.8958 19.6018 26.1987C19.6022 24.5016 20.2765 22.8737 21.4769 21.6741C22.677 20.4741 24.3049 19.7999 26.0019 19.7999C27.699 19.8003 29.3269 20.4746 30.5269 21.6746C31.7269 22.8746 32.4012 24.5025 32.4012 26.1996C32.3994 27.8966 31.7243 29.5233 30.5243 30.7234C29.3242 31.923 27.6972 32.5976 26 32.5994L26.0001 32.5993Z" fill="white"/>
</svg>
