<svg width="49" height="28" viewBox="0 0 49 28" fill="none" xmlns="http://www.w3.org/2000/svg">
<path d="M48.4692 13.8734C48.4692 21.2597 42.486 27.2468 35.1062 27.2468C27.7264 27.2468 21.7432 21.2597 21.7432 13.8734C21.7432 6.48712 27.7264 0.5 35.1062 0.5C42.486 0.5 48.4692 6.48712 48.4692 13.8734Z" stroke="#E8F2F9"/>
<path d="M37.0018 13.7129C37.1971 13.5177 37.1971 13.2011 37.0018 13.0058L33.8198 9.82384C33.6245 9.62858 33.308 9.62858 33.1127 9.82384C32.9174 10.0191 32.9174 10.3357 33.1127 10.5309L35.9411 13.3594L33.1127 16.1878C32.9174 16.3831 32.9174 16.6996 33.1127 16.8949C33.308 17.0902 33.6245 17.0902 33.8198 16.8949L37.0018 13.7129ZM0.707031 13.8594L36.6482 13.8594L36.6482 12.8594L0.707031 12.8594L0.707031 13.8594Z" fill="#04010C"/>
</svg>
