<svg width="35" height="40" viewBox="0 0 35 40" fill="none" xmlns="http://www.w3.org/2000/svg">
<path d="M27.4751 19.8066C23.5858 19.8066 20.4526 22.9397 20.4526 26.8291C20.4524 30.7185 23.6216 33.8517 27.4751 33.8517C31.3287 33.8517 34.4977 30.7186 34.4977 26.8291C34.4977 22.9397 31.3646 19.8066 27.4751 19.8066ZM31.3284 26.1089L27.1149 30.3224C26.6107 30.8266 25.8184 30.8266 25.3142 30.3224L23.6575 28.6657C23.1534 28.1615 23.1534 27.3692 23.6575 26.865C24.1617 26.3609 24.954 26.3609 25.4582 26.865L26.2146 27.6214L29.5278 24.3082C30.0319 23.8041 30.8242 23.8041 31.3284 24.3082C31.8326 24.8124 31.8326 25.6047 31.3284 26.1089Z" fill="#D82221"/>
<path d="M18.6518 26.8296C18.6518 21.968 22.6133 18.0065 27.4749 18.0065H28.9513V1.83669C28.9513 1.00845 28.3032 0.360352 27.4749 0.360352H3.95853C3.16624 0.360352 2.48193 1.00845 2.48193 1.83669V34.1762C2.48193 35.0044 3.13004 35.6528 3.95853 35.6528H27.4749C22.6131 35.6528 18.6518 31.6915 18.6518 26.8296ZM12.2415 25.137H9.07229C8.24406 25.137 7.5957 24.4889 7.5957 23.6604C7.5957 22.8322 8.2438 22.1838 9.07229 22.1838H12.2415C13.0697 22.1838 13.7181 22.8319 13.7181 23.6604C13.7181 24.4889 13.07 25.137 12.2415 25.137ZM15.3748 17.3582H9.07254C8.24431 17.3582 7.59595 16.7101 7.59595 15.8816C7.59595 15.0534 8.24406 14.405 9.07254 14.405H15.3388C16.1671 14.405 16.8154 15.0531 16.8154 15.8816C16.8152 16.7099 16.1671 17.3582 15.3748 17.3582ZM9.07254 9.57945C8.24431 9.57945 7.59595 8.93134 7.59595 8.10286C7.59595 7.27462 8.24406 6.62626 9.07254 6.62626H18.2918C19.1201 6.62626 19.7684 7.27437 19.7684 8.10286C19.7684 8.93109 19.1203 9.57945 18.2918 9.57945H9.07254Z" fill="#D82221"/>
</svg>
