<svg width="34" height="34" viewBox="0 0 34 34" fill="none" xmlns="http://www.w3.org/2000/svg">
<path d="M33.2696 6.84975C32.6302 3.96275 29.8315 1.3181 26.9365 0.756369C25.1723 0.403793 20.2515 -0.0317806 16.998 0.00208264C13.7445 -0.0337725 8.82436 0.400473 7.06015 0.754377C4.16518 1.3181 1.36648 3.96275 0.730383 6.84975C0.3632 8.60267 0.00531188 10.9877 0 14.2432C0.00531188 17.4967 0.3632 19.8824 0.730383 21.636C1.3698 24.523 4.1685 27.1677 7.06347 27.7294C8.01562 27.9193 9.88872 28.1344 11.9218 28.2858C12.152 28.6475 12.4021 29.0326 12.6721 29.4412C13.7511 31.0759 14.5765 32.2146 15.2026 33.0081C16.2437 34.3281 17.7589 34.3281 18.8001 33.0081C19.4262 32.2146 20.2515 31.0759 21.3305 29.4412C21.6005 29.033 21.8506 28.6479 22.0808 28.2858C24.1146 28.1344 25.987 27.9193 26.9399 27.7294C29.8348 27.1677 32.6335 24.523 33.2729 21.636C33.6368 19.8824 33.994 17.4981 34 14.2432C33.9907 10.987 33.6335 8.60333 33.2696 6.84975Z" fill="#D82221"/>
<path d="M16.998 0.00208263C13.7445 -0.0337725 8.82435 0.400473 7.06014 0.754376C4.16517 1.3181 1.36648 3.96274 0.730383 6.84975C0.363199 8.60266 0.00531187 10.9877 0 14.2432C0.00531187 17.4967 0.363199 19.8824 0.730383 21.636C1.10686 23.3351 2.23165 24.9506 3.68378 26.1066C5.10027 26.4457 6.5518 26.6167 8.00831 26.6159C18.2091 26.6159 26.4784 18.3466 26.4784 8.14651C26.4807 5.4901 25.9076 2.86471 24.7985 0.450936C22.5296 0.195966 19.3346 -0.0218208 16.998 0.00208263Z" fill="#A90100" fill-opacity="0.47"/>
<path d="M18.8762 24.1195C18.8321 24.3264 18.7291 24.516 18.5796 24.6655C18.4301 24.815 18.2404 24.918 18.0336 24.9621C17.3478 25.0675 16.6498 25.0675 15.964 24.9621C15.7571 24.9181 15.5675 24.8151 15.4179 24.6656C15.2684 24.5161 15.1654 24.3264 15.1214 24.1195C15.0152 23.4335 15.0152 22.7352 15.1214 22.0492C15.1654 21.8424 15.2684 21.6527 15.4179 21.5032C15.5675 21.3537 15.7571 21.2506 15.964 21.2066C16.6498 21.1013 17.3478 21.1013 18.0336 21.2066C18.2408 21.2509 18.4307 21.3543 18.5802 21.5044C18.7298 21.6544 18.8326 21.8446 18.8762 22.0519C18.9825 22.7379 18.9825 23.4362 18.8762 24.1222V24.1195ZM22.9186 13.2442C22.406 13.9692 21.6377 14.6312 20.501 15.3264C19.0621 16.2135 18.8317 16.578 18.8317 17.2918V17.574C18.8364 17.818 18.7923 18.0604 18.7022 18.2872C18.612 18.514 18.4775 18.7205 18.3066 18.8947C18.1357 19.0689 17.9318 19.2072 17.7068 19.3017C17.4818 19.3962 17.2402 19.4448 16.9962 19.4448C16.7521 19.4448 16.5105 19.3962 16.2855 19.3017C16.0605 19.2072 15.8566 19.0689 15.6857 18.8947C15.5148 18.7205 15.3803 18.514 15.2901 18.2872C15.2 18.0604 15.1559 17.818 15.1606 17.574V16.92C15.1606 16.078 15.371 15.3636 15.804 14.7361C16.2236 14.1279 16.8531 13.5874 17.7853 13.033C19.5044 12.0218 19.8191 11.4541 19.8191 10.7004C19.8191 9.75359 19.0123 9.1414 17.7607 9.1414C16.3936 9.1414 15.5032 9.76289 15.1148 10.9893C14.9889 11.3838 14.7402 11.7278 14.405 11.971C14.0699 12.2142 13.6657 12.3439 13.2516 12.3411C13.2038 12.3411 13.1553 12.3411 13.1082 12.3358C12.8107 12.3149 12.5219 12.2262 12.2639 12.0766C12.0059 11.927 11.7855 11.7204 11.6195 11.4726C11.4537 11.2293 11.3457 10.9512 11.3038 10.6597C11.2619 10.3682 11.2873 10.071 11.3778 9.79078C11.7762 8.51381 12.5933 7.40834 13.6971 6.65279C14.81 5.89452 16.2156 5.49414 17.7607 5.49414C19.3656 5.49414 20.8549 6.00607 21.9545 6.93565C23.0866 7.89178 23.7094 9.21112 23.7094 10.65C23.7127 11.6393 23.4531 12.4905 22.9186 13.2442Z" fill="white"/>
</svg>
