<svg width="37" height="41" viewBox="0 0 37 41" fill="none" xmlns="http://www.w3.org/2000/svg">
<path d="M12.3199 23.7603C12.3199 25.7042 10.744 27.2804 8.79982 27.2804C6.85589 27.2804 5.28003 25.7042 5.28003 23.7603C5.28003 21.8161 6.85589 20.2402 8.79982 20.2402C10.744 20.2402 12.3199 21.8161 12.3199 23.7603Z" fill="#D82221"/>
<path d="M11.9201 28.3203C11.0401 28.9202 9.95999 29.2804 8.80006 29.2804C7.64013 29.2804 6.56013 28.9204 5.68006 28.3203C4.08021 28.8803 2.96021 30.3602 2.96021 32.1202V34.1202C2.96021 34.5204 3.28024 34.8401 3.68006 34.8401H12.2401C12.36 33.2 13.1201 31.7201 14.3601 30.6802C13.9602 29.6002 13.0401 28.7202 11.9201 28.3203Z" fill="#D82221"/>
<path d="M34.7198 23.7603C34.7198 25.7042 33.1439 27.2804 31.2 27.2804C29.2558 27.2804 27.6799 25.7042 27.6799 23.7603C27.6799 21.8161 29.2558 20.2402 31.2 20.2402C33.1439 20.2402 34.7198 21.8161 34.7198 23.7603Z" fill="#D82221"/>
<path d="M34.3198 28.3203C33.4398 28.9202 32.3597 29.2804 31.1998 29.2804C30.0399 29.2804 28.9599 28.9204 28.0798 28.3203C26.9199 28.7204 26.0399 29.6005 25.5999 30.7205C26.8398 31.7604 27.5999 33.2405 27.7199 34.8803H36.2799C36.68 34.8803 36.9997 34.5603 36.9997 34.1605V32.1605C37.0396 30.3602 35.8798 28.8803 34.3198 28.3203Z" fill="#D82221"/>
<path d="M23.5199 26.9202C23.5199 28.8644 21.9437 30.4402 19.9998 30.4402C18.0559 30.4402 16.4797 28.8644 16.4797 26.9202C16.4797 24.9762 18.0559 23.4004 19.9998 23.4004C21.9437 23.4004 23.5199 24.9762 23.5199 26.9202Z" fill="#D82221"/>
<path d="M23.1198 31.4395C22.2398 32.0393 21.1597 32.3995 19.9998 32.3995C18.8398 32.3995 17.7598 32.0396 16.8798 31.4395C15.2799 31.9994 14.1599 33.4794 14.1599 35.2394V37.2394C14.1599 37.6395 14.4799 37.9592 14.8798 37.9592H25.0798C25.4799 37.9592 25.7996 37.6392 25.7996 37.2394V35.2394C25.8398 33.4793 24.6796 31.9995 23.1196 31.4395H23.1198Z" fill="#D82221"/>
<path d="M12.1598 18.5999C12.3599 18.7597 12.5998 18.7999 12.7999 18.7999C13.1199 18.7999 13.4799 18.64 13.6799 18.3599L16.1598 15.0399C17 15.4799 17.9199 15.8 18.8797 15.9199V19.88C18.8797 20.4799 19.3596 21 19.9997 21C20.6397 21 21.1197 20.5201 21.1197 19.88V15.9199C22.0797 15.7999 22.9997 15.4799 23.8395 15.0399L26.3195 18.3599C26.5195 18.64 26.8794 18.7999 27.1995 18.7999C27.4394 18.7999 27.6395 18.7198 27.8395 18.5999C28.3194 18.2399 28.4394 17.5599 28.0795 17.0399L25.5998 13.7199C27.0798 12.2799 28 10.2399 28 8C28 3.56 24.4001 0 20 0C15.56 0 12 3.59986 12 8C12 10.2399 12.9199 12.2801 14.4001 13.7199L11.9202 17.0798C11.56 17.56 11.6799 18.2399 12.1598 18.5999ZM16.0398 7.35986C16.4798 6.91984 17.1997 6.91984 17.6397 7.35986L18.9198 8.64L22.3598 5.2C22.7998 4.75999 23.5197 4.75999 23.9597 5.2C24.3997 5.64001 24.3997 6.35986 23.9597 6.79986L19.7198 11.0398C19.5197 11.2398 19.1997 11.3598 18.9198 11.3598C18.6397 11.3598 18.3199 11.2398 18.1199 11.0398L16.0398 8.95971C15.5998 8.51999 15.5998 7.79986 16.0398 7.35986Z" fill="#D82221"/>
</svg>
