<svg width="36" height="38" viewBox="0 0 36 38" fill="none" xmlns="http://www.w3.org/2000/svg">
<path d="M4.24503 3.3916C2.18878 3.3916 0.498779 5.08285 0.498779 7.13785V33.9991C0.498779 36.0554 2.18878 37.7453 4.24503 37.7453H27.9975C30.0538 37.7453 31.7525 36.0541 31.7525 33.9991V16.9929C31.755 16.2991 31.1913 15.7354 30.4975 15.7379C29.8063 15.7391 29.2488 16.3029 29.2525 16.9929V34.0004C29.2525 34.7141 28.71 35.2453 27.9975 35.2453H4.24503C3.53128 35.2453 2.99878 34.7141 2.99878 34.0004V7.1391C2.99878 6.42535 3.53003 5.8941 4.24503 5.8941H8.89503C9.58628 5.8966 10.1475 5.3391 10.15 4.64785C10.1525 3.9541 9.59003 3.39035 8.89503 3.39285L4.24503 3.3916ZM23.5025 3.3916C22.8113 3.3941 22.255 3.9566 22.2575 4.6466C22.26 5.33285 22.8163 5.89035 23.5025 5.89285H27.9975C28.71 5.89285 29.2525 6.4241 29.2525 7.13785V7.7466C29.255 8.4341 31.75 8.43785 31.7525 7.7466V7.13785C31.7525 5.0816 30.0538 3.3916 27.9975 3.3916H23.5025Z" fill="white"/>
<path d="M11.5162 0.24707C9.45998 0.24707 7.76123 1.94582 7.76123 4.00207V5.24832C7.76123 7.30457 9.46123 8.99457 11.5162 8.99457H20.7337C22.79 8.99457 24.4812 7.30332 24.4812 5.24832V4.00207C24.4812 1.94582 22.7887 0.24707 20.7337 0.24707H11.5162ZM11.5162 2.74707H20.7337C21.4487 2.74707 21.98 3.28832 21.98 4.00207V5.24832C21.98 5.96207 21.4487 6.49332 20.7337 6.49332H11.5162C10.8025 6.49332 10.2612 5.96207 10.2612 5.24832V4.00207C10.2612 3.28707 10.8025 2.74707 11.5162 2.74707Z" fill="white"/>
<path d="M9.63884 11.541C8.95134 11.5435 8.39509 12.0998 8.39259 12.7873C8.39009 13.4773 8.94759 14.0398 9.63884 14.0423H10.9751C11.6651 14.0398 12.2238 13.4773 12.2213 12.7873C12.2188 12.101 11.6626 11.5435 10.9751 11.541H9.63884Z" fill="white"/>
<path d="M7.7614 29.501C7.07515 29.5022 6.51765 30.0585 6.51515 30.746C6.51265 31.4372 7.07015 31.9985 7.7614 32.001H15.9501C16.6451 32.0047 17.2076 31.441 17.2051 30.746C17.2026 30.056 16.6414 29.4972 15.9501 29.501H7.7614Z" fill="white"/>
<path d="M32.8126 6.99378C31.1851 5.73753 28.8089 6.04878 27.5526 7.67628L14.6164 24.4513C13.5514 25.8325 13.6001 27.5238 13.7576 28.8163C13.9139 30.1088 14.2739 31.1325 14.2739 31.1325C14.4339 31.6 14.8526 31.9288 15.3439 31.9725C15.3439 31.9725 16.4376 32.0713 17.7426 31.9075C19.0489 31.745 20.7114 31.38 21.7839 29.9888L34.7301 13.2138C35.9851 11.5863 35.6751 9.21003 34.0464 7.95378L32.8126 6.99378ZM31.2901 8.97753L32.5264 9.92753C33.0914 10.3638 33.1839 11.115 32.7476 11.6813L19.8114 28.4663C19.4664 28.9138 18.4539 29.2988 17.4414 29.4263C16.9089 29.4925 16.8001 29.4575 16.4539 29.4538C16.3676 29.1238 16.3051 29.0363 16.2414 28.5125C16.1201 27.5113 16.2376 26.4438 16.5926 25.985L29.5389 9.20003C29.9739 8.63378 30.7251 8.54128 31.2901 8.97753Z" fill="white"/>
<path d="M9.63884 16.6973C8.95134 16.6998 8.39509 17.256 8.39259 17.9435C8.39009 18.6335 8.94759 19.196 9.63884 19.1985H10.9751C11.6651 19.196 12.2238 18.6335 12.2213 17.9435C12.2188 17.2573 11.6626 16.6998 10.9751 16.6973H9.63884Z" fill="white"/>
<path d="M9.63884 21.9307C8.95134 21.9332 8.39509 22.4894 8.39259 23.1757C8.39009 23.8669 8.94759 24.4282 9.63884 24.4307H10.9751C11.6651 24.4282 12.2238 23.8669 12.2213 23.1757C12.2188 22.4894 11.6626 21.9332 10.9751 21.9307H9.63884Z" fill="white"/>
</svg>
